<?xml version="1.0" standalone="no"?>
<!DOCTYPE svg PUBLIC "-//W3C//DTD SVG 20010904//EN"
 "http://www.w3.org/TR/2001/REC-SVG-20010904/DTD/svg10.dtd">
<svg version="1.0" xmlns="http://www.w3.org/2000/svg"
 width="700.000000pt" height="700.000000pt" viewBox="0 0 700.000000 700.000000"
 preserveAspectRatio="xMidYMid meet">
<metadata>
Created by potrace 1.11, written by Peter Selinger 2001-2013
</metadata>
<g transform="translate(0.000000,700.000000) scale(0.100000,-0.100000)"
fill="#000000" stroke="none">
<path d="M0 3500 l0 -3500 3500 0 3500 0 0 3500 0 3500 -3500 0 -3500 0 0
-3500z m3782 2445 c347 -259 853 -637 1127 -840 l496 -371 5 -729 c3 -402 4
-735 2 -742 -7 -25 -65 -33 -184 -27 l-118 7 0 652 c0 608 -1 653 -17 667 -10
9 -315 238 -679 510 -628 470 -1203 888 -1252 911 -19 9 -39 -1 -160 -83 -283
-194 -548 -385 -1212 -875 -239 -176 -481 -354 -537 -395 l-103 -74 0 -1458 0
-1458 1206 0 c663 0 1210 -2 1215 -6 24 -15 30 -63 23 -186 l-7 -128 -1368 0
-1369 0 0 1700 0 1699 552 413 c1276 954 1729 1288 1742 1285 5 -2 292 -214
638 -472z m673 -2870 c160 -98 294 -180 298 -182 4 -3 54 3 110 13 140 25 402
25 549 0 l107 -18 373 229 c358 221 373 229 376 204 1 -14 8 -237 16 -496 l13
-470 31 -60 c123 -242 113 -518 -25 -765 -58 -103 -221 -273 -328 -342 -148
-96 -304 -161 -490 -204 -113 -26 -134 -28 -345 -28 -196 0 -238 2 -326 22
-293 64 -517 180 -694 361 -100 102 -158 188 -204 305 -87 217 -71 476 41 676
l25 45 14 450 c7 248 13 469 14 493 l0 42 78 -48 c42 -27 208 -129 367 -227z"/>
<path d="M4270 2862 c0 -4 -5 -135 -10 -292 l-9 -285 -45 -78 c-130 -228 -92
-477 104 -676 137 -141 326 -237 563 -288 117 -25 409 -25 527 0 378 81 647
289 725 561 13 44 16 83 13 155 -5 106 -27 179 -78 263 l-32 51 -9 295 c-5
163 -10 296 -12 297 -1 1 -103 -60 -227 -135 l-225 -138 -94 24 c-208 53 -443
53 -650 1 l-92 -23 -97 59 c-53 33 -154 95 -224 138 -71 44 -128 76 -128 71z"/>
</g>
</svg>
